<svg width="16" height="16" viewBox="0 0 16 16" fill="none" xmlns="http://www.w3.org/2000/svg">
<path d="M4.17558 11.0318C4.43414 11.1287 4.56514 11.417 4.46818 11.6755L2.96818 15.6755C2.87122 15.9341 2.58301 16.0651 2.32445 15.9681C2.06589 15.8712 1.93489 15.583 2.03185 15.3244L3.53185 11.3244C3.62881 11.0658 3.91702 10.9348 4.17558 11.0318ZM7.17558 11.0318C7.43414 11.1287 7.56514 11.417 7.46818 11.6755L5.96818 15.6755C5.87122 15.9341 5.58301 16.0651 5.32445 15.9681C5.06589 15.8712 4.93489 15.583 5.03185 15.3244L6.53185 11.3244C6.62881 11.0658 6.91702 10.9348 7.17558 11.0318ZM10.1756 11.0318C10.4341 11.1287 10.5651 11.417 10.4682 11.6755L8.96818 15.6755C8.87122 15.9341 8.58301 16.0651 8.32445 15.9681C8.06589 15.8712 7.93489 15.583 8.03185 15.3244L9.53185 11.3244C9.62881 11.0658 9.91702 10.9348 10.1756 11.0318ZM13.1756 11.0318C13.4341 11.1287 13.5651 11.417 13.4682 11.6755L11.9682 15.6755C11.8712 15.9341 11.583 16.0651 11.3245 15.9681C11.0659 15.8712 10.9349 15.583 11.0318 15.3244L12.5318 11.3244C12.6288 11.0658 12.917 10.9348 13.1756 11.0318Z" fill="#7D67ED"/>
<path d="M13.4053 4.02709C12.9524 1.73115 10.9287 -6.10352e-05 8.5 -6.10352e-05C6.44002 -6.10352e-05 4.67207 1.2454 3.90606 3.02329C3.77271 3.00786 3.63721 2.99994 3.5 2.99994C1.567 2.99994 0 4.56694 0 6.49994C0 8.43294 1.567 9.99994 3.5 9.99994L13 9.99994C14.6569 9.99994 16 8.65679 16 6.99994C16 5.48055 14.8705 4.22497 13.4053 4.02709Z" fill="#7D67ED"/>
</svg>
