<svg width="16" height="16" viewBox="0 0 16 16" fill="none" xmlns="http://www.w3.org/2000/svg">
<path d="M13.4053 4.02721C12.9524 1.73127 10.9287 6.10352e-05 8.5 6.10352e-05C6.44002 6.10352e-05 4.67207 1.24552 3.90606 3.02342C3.77271 3.00798 3.63721 3.00006 3.5 3.00006C1.567 3.00006 0 4.56706 0 6.50006C0 8.43306 1.567 10.0001 3.5 10.0001L13 10.0001C14.6569 10.0001 16 8.65692 16 7.00006C16 5.48067 14.8705 4.22509 13.4053 4.02721ZM8.5 1.00006C10.5586 1.00006 12.2546 2.55562 12.4756 4.55513C12.5037 4.80949 12.7193 5.00157 12.9752 5.0002L13 5.00006L13.0013 5.00006C14.1053 5.00075 15 5.89592 15 7.00006C15 8.10463 14.1046 9.00006 13 9.00006L3.5 9.00006C2.11929 9.00006 1 7.88077 1 6.50006C1 5.11935 2.11929 4.00006 3.5 4.00006C3.70933 4.00006 3.91197 4.02568 4.10527 4.07371C4.35911 4.13679 4.61867 3.99357 4.70065 3.74519C5.22714 2.15014 6.72992 1.00006 8.5 1.00006Z" fill="#7D67ED"/>
<path d="M7.05279 11.2765C7.13748 11.1071 7.31061 11.0001 7.5 11.0001H8.5C8.66072 11.0001 8.81165 11.0773 8.90562 11.2077C8.9996 11.3381 9.02517 11.5057 8.97434 11.6582L8.69371 12.5001H9.5C9.6922 12.5001 9.86739 12.6102 9.95065 12.7835C10.0339 12.9567 10.0105 13.1623 9.89043 13.3124L7.89043 15.8124C7.74359 15.996 7.48873 16.0524 7.27809 15.9481C7.06745 15.8438 6.95792 15.6068 7.01493 15.3788L7.35961 14.0001L6.5 14.0001C6.32671 14.0001 6.16578 13.9103 6.07467 13.7629C5.98357 13.6155 5.97529 13.4314 6.05279 13.2765L7.05279 11.2765Z" fill="#7D67ED"/>
</svg>
