<svg width="16" height="16" viewBox="0 0 16 16" fill="none" xmlns="http://www.w3.org/2000/svg">
<path d="M7.99997 16C7.72382 16 7.49997 15.7761 7.49997 15.5V14.2071L6.85352 14.8536C6.65826 15.0488 6.34167 15.0488 6.14641 14.8536C5.95115 14.6583 5.95115 14.3417 6.14641 14.1464L7.49997 12.7929L7.49997 11.7071L6.85352 12.3536C6.65826 12.5488 6.34167 12.5488 6.14641 12.3536C5.95115 12.1583 5.95115 11.8417 6.14641 11.6464L7.49997 10.2929V8.866L6.26422 9.57946L5.76879 11.4284C5.69732 11.6952 5.42315 11.8535 5.15642 11.782C4.88968 11.7105 4.73139 11.4364 4.80286 11.1696L5.03948 10.2866L4.09916 10.8295L3.60373 12.6784C3.53226 12.9452 3.25809 13.1035 2.99135 13.032C2.72462 12.9605 2.56633 12.6864 2.6378 12.4196L2.87442 11.5366L1.75474 12.183C1.51559 12.3211 1.2098 12.2391 1.07172 12C0.933654 11.7608 1.01559 11.4551 1.25474 11.317L2.37442 10.6705L1.49135 10.4339C1.22462 10.3625 1.06633 10.0883 1.1378 9.82155C1.20927 9.55482 1.48344 9.39652 1.75017 9.468L3.59916 9.96343L4.53948 9.42054L3.65642 9.18392C3.38968 9.11245 3.23139 8.83828 3.30286 8.57155C3.37433 8.30482 3.6485 8.14652 3.91524 8.218L5.76423 8.71343L6.99994 7.99999L5.76426 7.28657L3.91527 7.782C3.64854 7.85347 3.37437 7.69518 3.3029 7.42845C3.23143 7.16171 3.38972 6.88755 3.65645 6.81608L4.53952 6.57946L3.5992 6.03657L1.75021 6.532C1.48348 6.60347 1.20931 6.44518 1.13784 6.17845C1.06637 5.91171 1.22466 5.63755 1.49139 5.56608L2.37445 5.32946L1.25477 4.68301C1.01563 4.54494 0.93369 4.23915 1.07176 4C1.20983 3.76085 1.51563 3.67892 1.75477 3.81699L2.87445 4.46343L2.63784 3.58037C2.56637 3.31364 2.72466 3.03947 2.99139 2.968C3.25812 2.89653 3.53229 3.05482 3.60376 3.32155L4.0992 5.17054L5.03952 5.71343L4.8029 4.83037C4.73143 4.56364 4.88972 4.28947 5.15645 4.218C5.42319 4.14653 5.69735 4.30482 5.76883 4.57155L6.26426 6.42054L7.49997 7.13397V5.70711L6.14641 4.35355C5.95115 4.15829 5.95115 3.84171 6.14641 3.64645C6.34167 3.45118 6.65826 3.45118 6.85352 3.64645L7.49997 4.29289V3.20711L6.14641 1.85355C5.95115 1.65829 5.95115 1.34171 6.14641 1.14645C6.34167 0.951184 6.65826 0.951184 6.85352 1.14645L7.49997 1.79289V0.5C7.49997 0.223858 7.72382 0 7.99997 0C8.27611 0 8.49997 0.223858 8.49997 0.5V1.79289L9.14641 1.14645C9.34167 0.951184 9.65826 0.951184 9.85352 1.14645C10.0488 1.34171 10.0488 1.65829 9.85352 1.85355L8.49997 3.20711V4.29289L9.14641 3.64645C9.34167 3.45118 9.65826 3.45118 9.85352 3.64645C10.0488 3.84171 10.0488 4.15829 9.85352 4.35355L8.49997 5.70711V7.13395L9.73563 6.42054L10.2311 4.57155C10.3025 4.30482 10.5767 4.14652 10.8434 4.218C11.1102 4.28947 11.2685 4.56363 11.197 4.83037L10.9604 5.71343L11.9007 5.17054L12.3961 3.32155C12.4676 3.05482 12.7418 2.89652 13.0085 2.968C13.2752 3.03947 13.4335 3.31363 13.3621 3.58037L13.1254 4.46343L14.2451 3.81698C14.4843 3.67891 14.7901 3.76085 14.9281 4C15.0662 4.23914 14.9843 4.54494 14.7451 4.68301L13.6254 5.32946L14.5085 5.56607C14.7752 5.63754 14.9335 5.91171 14.8621 6.17844C14.7906 6.44518 14.5164 6.60347 14.2497 6.532L12.4007 6.03656L11.4604 6.57946L12.3434 6.81607C12.6102 6.88754 12.7685 7.16171 12.697 7.42844C12.6255 7.69518 12.3514 7.85347 12.0846 7.782L10.2356 7.28656L8.99994 7.99999L10.2357 8.71343L12.0847 8.218C12.3514 8.14653 12.6256 8.30482 12.697 8.57155C12.7685 8.83829 12.6102 9.11245 12.3435 9.18393L11.4604 9.42054L12.4007 9.96343L14.2497 9.468C14.5165 9.39653 14.7906 9.55482 14.8621 9.82155C14.9336 10.0883 14.7753 10.3625 14.5085 10.4339L13.6255 10.6705L14.7452 11.317C14.9843 11.4551 15.0662 11.7609 14.9282 12C14.7901 12.2391 14.4843 12.3211 14.2452 12.183L13.1255 11.5366L13.3621 12.4196C13.4336 12.6864 13.2753 12.9605 13.0085 13.032C12.7418 13.1035 12.4676 12.9452 12.3962 12.6784L11.9007 10.8295L10.9604 10.2866L11.197 11.1696C11.2685 11.4364 11.1102 11.7105 10.8435 11.782C10.5767 11.8535 10.3026 11.6952 10.2311 11.4284L9.73567 9.57946L8.49997 8.86603V10.2929L9.85352 11.6464C10.0488 11.8417 10.0488 12.1583 9.85352 12.3536C9.65826 12.5488 9.34167 12.5488 9.14641 12.3536L8.49997 11.7071V12.7929L9.85352 14.1464C10.0488 14.3417 10.0488 14.6583 9.85352 14.8536C9.65826 15.0488 9.34167 15.0488 9.14641 14.8536L8.49997 14.2071V15.5C8.49997 15.7761 8.27611 16 7.99997 16Z" fill="#7D67ED"/>
</svg>
